<svg width="24" height="24" viewBox="0 0 24 24" fill="none" xmlns="http://www.w3.org/2000/svg">
<g clip-path="url(#clip0_712_5467)">
<path d="M12 6L4.5 13.5L6.6 15.675L10.5 11.775L10.5 24H13.5L13.5 11.775L17.4 15.675L19.5 13.5L12 6ZM3 0C2.175 0 1.46875 0.293749 0.88125 0.881248C0.29375 1.46875 0 2.175 0 3L0 7.5H3L3 3L21 3V7.5H24V3C24 2.175 23.7063 1.46875 23.1188 0.881248C22.5312 0.293749 21.825 0 21 0L3 0Z" fill="#8B5CF6"/>
</g>
<defs>
<clipPath id="clip0_712_5467">
<rect width="24" height="24" fill="white" transform="matrix(1 0 0 -1 0 24)"/>
</clipPath>
</defs>
</svg>
